<?xml version="1.0" standalone="no"?>
<!DOCTYPE svg PUBLIC "-//W3C//DTD SVG 20010904//EN"
 "http://www.w3.org/TR/2001/REC-SVG-20010904/DTD/svg10.dtd">
<svg version="1.0" xmlns="http://www.w3.org/2000/svg"
 width="512.000000pt" height="512.000000pt" viewBox="0 0 512.000000 512.000000"
 preserveAspectRatio="xMidYMid meet">

<g transform="translate(0.000000,512.000000) scale(0.100000,-0.100000)"
fill="#000000" stroke="none">
<path d="M0 2965 l0 -1665 2560 0 2560 0 0 1665 0 1665 -2560 0 -2560 0 0
-1665z m3205 473 l150 -308 250 -112 250 -113 248 -3 247 -3 0 -126 0 -126
-283 7 -283 6 -304 134 -305 133 -142 284 c-126 253 -142 281 -151 259 -5 -14
-112 -377 -238 -807 -131 -450 -232 -779 -237 -774 -5 5 -152 256 -327 557
-175 302 -322 550 -327 551 -4 2 -75 -76 -158 -172 l-150 -175 -337 0 -338 0
0 125 0 125 277 2 278 3 230 267 c126 147 234 266 239 264 5 -1 127 -206 272
-455 145 -249 265 -455 267 -457 2 -2 113 371 247 829 134 457 245 836 248
840 4 8 70 -123 377 -755z"/>
<path d="M1542 757 c-138 -138 -252 -255 -252 -260 0 -4 572 -7 1270 -7 699 0
1270 3 1270 8 0 4 -114 121 -253 260 l-252 252 -765 0 -765 0 -253 -253z"/>
</g>
</svg>
